{"glyphs":{"0":{"ha":949,"x_min":0,"x_max":0,"o":"m 605 790 b 49 790 564 790 49 790 b 49 398 49 790 49 622 b 466 -15 49 136 221 -15 b 897 393 711 -15 897 138 b 605 790 897 653 731 774 z m 458 14 b 210 393 287 14 210 201 b 210 762 210 480 210 762 b 494 762 210 762 416 762 b 711 400 627 762 711 593 b 458 14 711 199 606 14 z "},"1":{"ha":543,"x_min":0,"x_max":0,"o":"m 49 790 l 150 618 b 332 757 204 699 244 744 l 332 0 l 492 0 l 492 790 z "},"2":{"ha":894,"x_min":0,"x_max":0,"o":"m 49 0 l 183 0 b 357 65 183 107 275 111 b 480 0 406 38 480 0 b 843 239 640 0 803 68 l 654 239 b 483 32 646 112 569 32 l 370 98 b 210 169 274 154 210 169 l 210 243 b 411 461 210 353 295 436 b 588 505 455 471 544 492 b 808 745 764 552 808 581 l 808 790 l 81 790 l 194 619 b 426 762 260 717 294 762 l 646 762 b 485 511 646 528 531 519 b 297 480 436 502 361 489 b 49 261 150 456 49 409 z "},"3":{"ha":844,"x_min":0,"x_max":0,"o":"m 49 240 b 432 -14 49 77 172 -14 b 815 247 648 -14 815 76 b 520 507 815 408 708 507 b 765 745 678 570 765 584 l 765 790 l 55 790 l 168 619 b 398 762 233 716 266 762 l 603 762 b 409 504 603 551 409 504 l 143 504 l 210 390 l 407 472 b 469 453 407 472 431 466 b 625 239 556 425 625 363 b 432 14 625 87 532 14 b 238 240 319 14 238 96 l 49 240 z "},"4":{"ha":883,"x_min":0,"x_max":0,"o":"m 674 790 l 674 408 b 516 325 674 408 602 384 b 427 264 493 310 427 264 b 233 510 318 264 233 364 b 442 762 233 631 288 727 l 513 762 l 513 790 l 331 790 b 49 511 205 770 49 722 b 430 233 49 315 282 233 b 531 301 430 233 531 301 b 700 224 617 357 700 338 b 700 0 700 175 700 0 l 834 0 l 834 790 z "},"5":{"ha":851,"x_min":0,"x_max":0,"o":"m 478 504 b 222 629 250 504 222 629 b 222 762 222 668 222 762 l 455 762 b 666 619 579 762 601 716 l 781 790 l 62 790 l 62 595 l 403 468 b 625 239 514 424 625 396 b 432 14 625 87 526 14 b 238 240 331 14 238 96 l 49 240 b 432 -14 49 86 184 -14 b 815 247 637 -14 815 76 b 478 504 815 419 692 504 z "},"6":{"ha":876,"x_min":0,"x_max":0,"o":"m 454 9 b 235 388 294 9 235 216 b 245 503 235 466 245 503 b 406 477 273 491 315 477 b 676 477 486 477 584 477 b 676 393 676 461 676 409 b 454 9 676 193 594 9 z m 862 502 b 400 502 862 502 513 502 b 271 656 273 502 239 591 b 497 762 307 729 376 762 b 728 616 603 762 663 714 l 843 790 l 350 790 b 49 393 215 771 49 618 b 462 -19 49 129 224 -19 b 862 388 700 -19 862 131 b 862 502 862 417 862 476 z "},"7":{"ha":858,"x_min":0,"x_max":0,"o":"m 105 790 l 218 618 b 449 761 283 716 316 761 l 645 761 b 485 504 645 529 531 513 b 298 472 468 500 361 481 b 49 249 146 449 49 400 b 49 0 49 187 49 0 l 210 0 l 210 236 b 411 461 210 340 287 434 b 589 504 455 471 545 492 b 808 745 764 551 808 581 b 808 790 808 768 808 790 l 105 790 z "},"8":{"ha":868,"x_min":0,"x_max":0,"o":"m 589 458 l 683 619 l 785 790 l 82 790 b 82 745 82 790 82 768 b 301 504 82 582 136 570 b 49 252 179 479 49 432 b 449 -15 49 72 228 -15 b 832 238 675 -15 832 67 b 589 458 832 374 714 425 z m 245 762 l 440 762 b 602 707 520 761 562 758 b 592 551 630 670 620 606 b 549 468 577 520 558 484 b 405 504 549 468 487 482 b 245 762 371 516 245 529 z m 451 13 b 451 13 451 13 451 13 b 244 273 340 13 244 105 b 398 476 244 376 280 463 b 644 238 493 476 644 395 b 451 13 644 87 554 13 z "},"9":{"ha":893,"x_min":0,"x_max":0,"o":"m 360 790 b 77 511 233 770 77 721 b 463 232 77 314 315 232 b 534 302 463 232 534 302 b 710 224 616 376 710 338 b 475 28 710 86 599 28 b 178 197 324 28 292 46 l 49 0 b 437 0 123 0 344 0 b 844 380 713 0 844 160 b 844 790 844 422 844 790 z m 683 402 b 523 330 683 402 605 417 l 523 330 l 456 264 b 262 510 347 264 262 364 b 470 761 262 631 316 727 l 683 761 l 683 402 z "},"\u0000":{"ha":0,"x_min":0,"x_max":0,"o":""},"\n":{"ha":0,"x_min":0,"x_max":0,"o":""},"\r":{"ha":0,"x_min":0,"x_max":0,"o":""}," ":{"ha":407,"x_min":0,"x_max":0,"o":""},"!":{"ha":258,"x_min":0,"x_max":0,"o":"m 209 0 l 209 141 l 49 141 l 49 0 z m 209 187 l 209 790 l 49 790 l 49 187 z "},"\"":{"ha":453,"x_min":0,"x_max":0,"o":"m 28 790 l 28 761 b 127 613 28 761 86 674 l 227 763 l 326 613 b 425 761 367 674 425 761 l 425 790 z "},"“":{"ha":453,"x_min":0,"x_max":0,"o":"m 28 790 l 28 761 b 127 613 28 761 86 674 l 227 763 l 326 613 b 425 761 367 674 425 761 l 425 790 z "},"”":{"ha":453,"x_min":0,"x_max":0,"o":"m 28 790 l 28 761 b 127 613 28 761 86 674 l 227 763 l 326 613 b 425 761 367 674 425 761 l 425 790 z "},"#":{"ha":1019,"x_min":0,"x_max":0,"o":"m 969 761 l 969 790 l 904 790 b 606 504 798 777 650 682 l 376 504 b 580 761 391 684 449 761 l 580 790 l 516 790 b 218 504 409 777 262 682 l 49 504 l 49 466 l 210 466 b 205 395 207 444 205 420 b 204 327 205 370 204 348 l 49 327 l 49 289 l 203 289 b 49 29 195 132 162 71 l 50 0 b 360 289 157 14 316 101 l 591 289 b 438 29 584 132 551 71 l 439 0 b 749 289 546 14 705 101 l 968 289 l 968 327 l 756 327 b 761 395 759 348 761 371 b 762 466 761 420 761 444 l 969 466 l 969 504 l 765 504 b 969 761 780 684 838 761 z m 594 395 b 593 327 594 370 593 348 l 367 327 b 372 395 370 348 372 371 b 373 466 372 420 372 444 l 599 466 b 594 395 595 444 594 420 z "},"$":{"ha":850,"x_min":0,"x_max":0,"o":"m 799 222 b 522 438 799 364 672 415 l 522 734 b 647 613 568 709 607 667 l 751 789 b 522 789 734 789 633 789 b 461 789 502 789 482 789 b 397 789 440 789 418 789 b 336 789 376 789 355 789 b 210 789 263 789 210 789 b 67 613 153 776 67 722 b 327 439 67 495 169 458 b 336 438 330 439 333 439 l 336 37 b 235 228 273 72 235 141 l 49 228 b 336 -10 49 87 172 11 l 336 -86 l 397 -86 l 397 -15 b 435 -16 410 -16 422 -16 b 461 -15 444 -16 453 -16 l 461 -86 l 522 -86 l 522 -11 b 799 222 680 9 799 84 z m 411 761 b 461 756 429 761 446 760 l 461 446 b 403 455 442 449 423 452 b 397 456 401 456 399 456 l 397 761 b 411 761 402 761 406 761 z m 229 616 b 336 751 229 679 268 730 l 336 471 b 229 616 257 497 229 544 z m 438 12 b 397 15 424 12 410 13 l 397 429 b 461 416 421 425 442 421 l 461 13 b 438 12 454 12 446 12 z m 522 28 l 522 394 b 626 228 597 359 626 305 b 522 28 626 133 593 59 z "},"%":{"ha":1040,"x_min":0,"x_max":0,"o":"m 812 395 b 615 195 697 395 615 305 b 796 0 615 66 698 0 b 989 192 896 0 989 66 b 812 395 989 320 920 395 z m 796 31 b 718 192 741 31 718 108 b 812 357 718 282 755 357 b 887 195 861 357 887 290 b 796 31 887 97 844 31 z m 441 582 b 321 789 441 710 376 781 b 178 789 302 789 178 789 b 49 585 120 773 49 701 b 238 381 49 450 135 381 b 441 582 343 381 441 451 z m 156 582 b 255 761 156 676 195 761 b 334 586 307 761 334 686 b 238 413 334 482 288 413 b 156 582 180 413 156 494 z m 819 761 l 819 790 l 755 790 b 458 395 629 774 458 655 b 198 29 458 157 352 61 l 199 0 b 611 395 345 0 611 119 b 819 761 611 653 671 761 z "},"&":{"ha":921,"x_min":0,"x_max":0,"o":"m 710 586 l 710 352 l 544 426 l 657 618 l 758 790 l 65 790 b 65 745 65 790 65 768 b 284 504 65 581 120 570 b 49 309 158 490 49 424 b 93 157 49 241 63 185 l 450 0 b 871 239 586 0 871 67 l 871 586 z m 235 761 l 446 761 b 594 725 527 761 565 763 b 584 587 620 692 612 642 b 508 441 569 557 519 462 l 385 496 b 235 761 335 519 235 552 z m 460 29 b 216 290 368 29 216 138 b 356 473 216 407 250 456 b 546 387 356 473 446 434 b 725 218 671 329 725 297 b 460 29 725 81 551 29 z "},"'":{"ha":226,"x_min":0,"x_max":0,"o":"m 212 790 l 14 790 l 14 761 l 113 613 l 212 762 z "},"‘":{"ha":226,"x_min":0,"x_max":0,"o":"m 212 790 l 14 790 l 14 761 l 113 613 l 212 762 z "},"’":{"ha":226,"x_min":0,"x_max":0,"o":"m 212 790 l 14 790 l 14 761 l 113 613 l 212 762 z "},"(":{"ha":574,"x_min":0,"x_max":0,"o":"m 202 281 b 523 763 202 527 342 715 l 523 791 l 469 791 b 49 280 235 746 49 560 b 523 -232 49 -39 277 -207 l 523 -202 b 202 281 336 -166 202 25 z "},")":{"ha":574,"x_min":0,"x_max":0,"o":"m 49 -202 l 49 -232 b 523 280 294 -207 523 -39 b 102 791 523 560 337 746 l 49 791 l 49 763 b 369 281 229 715 369 527 b 49 -202 369 25 235 -166 z "},"*":{"ha":492,"x_min":0,"x_max":0,"o":"m 442 642 l 275 605 l 267 608 l 361 755 l 292 789 l 245 630 l 236 630 l 154 789 l 92 737 l 208 617 l 208 608 l 35 617 l 35 542 l 202 578 l 210 575 l 115 429 l 184 394 l 232 553 l 232 553 l 241 553 l 323 394 l 385 446 l 268 567 l 268 575 l 442 567 z "},"+":{"ha":792,"x_min":0,"x_max":0,"o":"m 723 273 l 723 380 l 440 358 l 427 370 l 450 653 l 342 653 l 365 370 l 352 358 l 69 380 l 69 273 l 352 295 l 365 283 l 342 0 l 450 0 l 427 283 l 440 295 z "},",":{"ha":247,"x_min":0,"x_max":0,"o":"m 55 140 b -56 -109 55 -13 26 -77 l -55 -137 b 196 140 50 -124 196 -65 z "},"-":{"ha":456,"x_min":0,"x_max":0,"o":"m 49 328 l 406 299 l 406 380 l 49 381 z "},".":{"ha":239,"x_min":0,"x_max":0,"o":"m 189 0 l 189 140 l 49 140 l 49 0 z "},"/":{"ha":408,"x_min":0,"x_max":0,"o":"m 49 0 b 183 0 49 0 183 0 l 357 790 l 203 790 b 191 644 203 790 210 731 b 49 0 153 472 49 0 z "},":":{"ha":239,"x_min":0,"x_max":0,"o":"m 189 0 l 189 140 l 49 140 l 49 0 z m 189 512 l 189 653 l 49 653 l 49 512 z "},";":{"ha":294,"x_min":0,"x_max":0,"o":"m 224 512 l 224 653 l 83 653 l 83 512 z m -28 -109 l -27 -137 b 224 140 78 -124 224 -65 l 83 140 b -28 -109 83 -13 54 -77 z "},"<":{"ha":863,"x_min":0,"x_max":0,"o":"m 466 177 b 351 206 421 185 383 195 b 452 266 382 215 436 250 l 443 275 b 300 226 419 252 345 221 b 192 327 212 268 192 316 b 466 477 192 343 236 438 b 793 653 641 506 759 534 l 599 653 b 392 507 564 571 476 542 b 69 369 310 472 69 369 l 69 285 b 392 147 69 285 310 182 b 599 0 476 112 564 82 l 793 0 b 466 177 759 119 641 147 z m 377 298 b 416 321 398 298 416 308 b 377 345 416 334 398 345 b 337 321 355 345 337 334 b 377 298 337 308 355 298 z "},"=":{"ha":764,"x_min":0,"x_max":0,"o":"m 70 260 l 693 208 l 693 311 l 69 313 z m 70 598 l 71 545 l 694 493 l 694 596 z "},">":{"ha":863,"x_min":0,"x_max":0,"o":"m 470 507 b 263 653 386 542 298 571 l 69 653 b 396 477 103 534 221 506 b 670 327 626 438 670 343 b 562 226 670 316 650 268 b 419 275 517 221 443 252 l 410 266 b 511 206 426 250 480 215 b 396 177 479 195 441 185 b 69 0 221 147 103 119 l 263 0 b 470 147 298 82 386 112 b 793 285 552 182 793 285 l 793 369 b 470 507 793 369 552 472 z m 485 298 b 525 321 507 298 525 308 b 485 345 525 334 507 345 b 446 321 464 345 446 334 b 485 298 446 308 464 298 z "},"?":{"ha":836,"x_min":0,"x_max":0,"o":"m 519 790 l 35 790 l 148 618 b 363 761 211 712 244 757 l 408 761 b 617 510 562 727 617 631 b 448 263 617 364 536 263 l 392 315 b 220 402 324 384 276 402 b 49 222 151 402 49 360 b 49 187 49 216 49 193 l 211 187 b 211 222 211 195 211 215 b 370 302 211 353 290 377 l 441 231 b 801 511 561 231 801 314 b 519 790 801 721 645 770 z m 211 0 l 211 141 l 49 141 l 49 0 z "},"@":{"ha":1389,"x_min":0,"x_max":0,"o":"m 1346 491 b 1150 790 1340 695 1183 775 l 481 790 b 28 310 212 747 28 560 b 652 -233 28 0 304 -233 l 812 -233 b 1248 -233 906 -233 1174 -233 l 1129 -51 b 812 -204 1045 -159 918 -204 l 652 -204 b 204 310 443 -204 204 0 b 552 761 204 584 344 722 l 978 761 b 1173 482 1079 758 1169 643 b 1052 163 1178 300 1130 196 b 1025 152 1044 160 1025 152 l 1025 653 l 575 653 b 325 314 406 609 325 494 b 686 -25 325 -11 625 -25 l 863 49 l 863 0 l 1025 0 l 1025 115 b 1087 140 1025 115 1067 132 b 1346 491 1254 205 1351 291 z m 687 8 b 496 314 627 23 496 94 b 680 624 496 487 557 589 b 863 624 756 624 863 624 b 863 85 863 377 863 85 z "},"A":{"ha":769,"x_min":0,"x_max":0,"o":"m 447 790 l 49 790 l 49 0 l 210 0 l 210 504 b 560 252 298 424 560 461 b 560 0 560 128 560 0 l 720 0 b 720 396 720 0 720 151 b 447 790 720 655 569 768 z m 175 629 b 175 762 175 762 175 762 l 359 762 b 560 435 501 762 560 606 b 175 629 468 534 175 470 z "},"À":{"ha":769,"x_min":0,"x_max":0,"o":"m 447 790 l 49 790 l 49 0 l 210 0 l 210 504 b 560 252 298 424 560 461 b 560 0 560 128 560 0 l 720 0 b 720 396 720 0 720 151 b 447 790 720 655 569 768 z m 175 629 b 175 762 175 762 175 762 l 359 762 b 560 435 501 762 560 606 b 175 629 468 534 175 470 z "},"Á":{"ha":769,"x_min":0,"x_max":0,"o":"m 447 790 l 49 790 l 49 0 l 210 0 l 210 504 b 560 252 298 424 560 461 b 560 0 560 128 560 0 l 720 0 b 720 396 720 0 720 151 b 447 790 720 655 569 768 z m 175 629 b 175 762 175 762 175 762 l 359 762 b 560 435 501 762 560 606 b 175 629 468 534 175 470 z "},"Â":{"ha":769,"x_min":0,"x_max":0,"o":"m 447 790 l 49 790 l 49 0 l 210 0 l 210 504 b 560 252 298 424 560 461 b 560 0 560 128 560 0 l 720 0 b 720 396 720 0 720 151 b 447 790 720 655 569 768 z m 175 629 b 175 762 175 762 175 762 l 359 762 b 560 435 501 762 560 606 b 175 629 468 534 175 470 z "},"Ã":{"ha":769,"x_min":0,"x_max":0,"o":"m 447 790 l 49 790 l 49 0 l 210 0 l 210 504 b 560 252 298 424 560 461 b 560 0 560 128 560 0 l 720 0 b 720 396 720 0 720 151 b 447 790 720 655 569 768 z m 175 629 b 175 762 175 762 175 762 l 359 762 b 560 435 501 762 560 606 b 175 629 468 534 175 470 z "},"Ä":{"ha":769,"x_min":0,"x_max":0,"o":"m 447 790 l 49 790 l 49 0 l 210 0 l 210 504 b 560 252 298 424 560 461 b 560 0 560 128 560 0 l 720 0 b 720 396 720 0 720 151 b 447 790 720 655 569 768 z m 175 629 b 175 762 175 762 175 762 l 359 762 b 560 435 501 762 560 606 b 175 629 468 534 175 470 z "},"Å":{"ha":769,"x_min":0,"x_max":0,"o":"m 447 790 l 49 790 l 49 0 l 210 0 l 210 504 b 560 252 298 424 560 461 b 560 0 560 128 560 0 l 720 0 b 720 396 720 0 720 151 b 447 790 720 655 569 768 z m 175 629 b 175 762 175 762 175 762 l 359 762 b 560 435 501 762 560 606 b 175 629 468 534 175 470 z "},"B":{"ha":772,"x_min":0,"x_max":0,"o":"m 465 483 l 660 790 b 49 790 582 790 49 790 l 49 0 b 415 0 49 0 376 0 b 737 221 519 0 737 19 b 465 483 737 406 598 474 z m 181 628 b 181 762 181 668 181 762 b 338 762 181 762 309 762 b 420 488 541 762 483 581 b 181 628 240 488 181 537 z m 310 19 b 210 19 283 19 229 19 b 210 503 210 88 210 503 b 549 223 306 394 549 453 b 310 19 549 28 404 19 z "},"C":{"ha":886,"x_min":0,"x_max":0,"o":"m 444 13 b 230 382 289 13 230 208 b 497 761 230 568 329 761 b 718 609 615 761 651 709 l 836 790 l 334 790 b 28 387 196 770 28 616 b 452 -15 28 120 226 -15 b 836 229 657 -15 780 87 l 644 229 b 444 13 622 116 572 13 z "},"Ç":{"ha":886,"x_min":0,"x_max":0,"o":"m 444 13 b 230 382 289 13 230 208 b 497 761 230 568 329 761 b 718 609 615 761 651 709 l 836 790 l 334 790 b 28 387 196 770 28 616 b 452 -15 28 120 226 -15 b 836 229 657 -15 780 87 l 644 229 b 444 13 622 116 572 13 z "},"D":{"ha":863,"x_min":0,"x_max":0,"o":"m 545 791 b 49 791 528 791 49 791 l 49 1 l 210 1 l 210 46 b 397 0 255 14 307 0 b 835 392 636 0 835 149 b 545 791 835 651 670 775 z m 210 762 l 433 762 b 629 504 541 762 608 649 b 485 504 629 504 485 504 b 425 504 482 504 467 504 b 210 477 313 504 239 484 b 210 762 211 625 210 762 z m 393 29 b 176 262 248 29 176 132 b 433 479 176 386 274 479 b 485 479 472 479 482 479 b 486 479 486 479 486 479 l 632 479 b 636 399 635 453 636 427 b 393 29 636 218 541 29 z "},"E":{"ha":801,"x_min":0,"x_max":0,"o":"m 387 29 l 211 29 b 211 260 211 72 211 206 b 377 476 211 364 242 476 l 606 375 l 691 504 l 371 504 b 211 762 371 504 211 529 l 445 762 b 635 613 535 762 569 711 l 751 790 l 49 790 b 49 745 49 790 49 779 b 268 504 49 581 103 570 b 49 263 110 504 49 442 b 49 0 49 0 49 0 l 751 0 l 636 197 b 387 29 572 102 514 32 z "},"È":{"ha":801,"x_min":0,"x_max":0,"o":"m 387 29 l 211 29 b 211 260 211 72 211 206 b 377 476 211 364 242 476 l 606 375 l 691 504 l 371 504 b 211 762 371 504 211 529 l 445 762 b 635 613 535 762 569 711 l 751 790 l 49 790 b 49 745 49 790 49 779 b 268 504 49 581 103 570 b 49 263 110 504 49 442 b 49 0 49 0 49 0 l 751 0 l 636 197 b 387 29 572 102 514 32 z "},"É":{"ha":801,"x_min":0,"x_max":0,"o":"m 387 29 l 211 29 b 211 260 211 72 211 206 b 377 476 211 364 242 476 l 606 375 l 691 504 l 371 504 b 211 762 371 504 211 529 l 445 762 b 635 613 535 762 569 711 l 751 790 l 49 790 b 49 745 49 790 49 779 b 268 504 49 581 103 570 b 49 263 110 504 49 442 b 49 0 49 0 49 0 l 751 0 l 636 197 b 387 29 572 102 514 32 z "},"Ê":{"ha":801,"x_min":0,"x_max":0,"o":"m 387 29 l 211 29 b 211 260 211 72 211 206 b 377 476 211 364 242 476 l 606 375 l 691 504 l 371 504 b 211 762 371 504 211 529 l 445 762 b 635 613 535 762 569 711 l 751 790 l 49 790 b 49 745 49 790 49 779 b 268 504 49 581 103 570 b 49 263 110 504 49 442 b 49 0 49 0 49 0 l 751 0 l 636 197 b 387 29 572 102 514 32 z "},"Ë":{"ha":801,"x_min":0,"x_max":0,"o":"m 387 29 l 211 29 b 211 260 211 72 211 206 b 377 476 211 364 242 476 l 606 375 l 691 504 l 371 504 b 211 762 371 504 211 529 l 445 762 b 635 613 535 762 569 711 l 751 790 l 49 790 b 49 745 49 790 49 779 b 268 504 49 581 103 570 b 49 263 110 504 49 442 b 49 0 49 0 49 0 l 751 0 l 636 197 b 387 29 572 102 514 32 z "},"F":{"ha":779,"x_min":0,"x_max":0,"o":"m 211 762 l 445 762 b 635 613 535 762 569 711 l 751 790 l 49 790 b 49 745 49 790 49 768 b 268 504 49 581 103 570 b 49 263 120 504 49 442 b 49 0 49 67 49 0 l 211 0 b 211 260 211 0 211 114 b 377 478 211 364 242 478 l 606 375 l 691 504 l 371 504 b 211 762 371 504 211 529 z "},"G":{"ha":881,"x_min":0,"x_max":0,"o":"m 849 504 l 318 504 l 319 503 l 419 351 b 599 478 419 351 493 478 l 662 478 b 424 29 683 123 546 29 b 213 390 271 29 213 219 b 476 762 213 572 311 762 b 709 618 611 762 626 725 l 822 790 l 314 790 b 28 395 180 771 28 619 b 432 0 28 133 198 0 b 849 504 657 0 878 71 z "},"H":{"ha":776,"x_min":0,"x_max":0,"o":"m 727 0 b 725 396 727 0 725 152 b 725 790 725 656 725 790 l 564 790 l 564 436 b 174 655 472 536 174 476 b 174 790 174 697 174 790 l 49 790 l 49 0 l 209 0 l 209 505 b 564 219 297 425 564 437 b 564 0 564 63 564 0 l 727 0 z "},"I":{"ha":260,"x_min":0,"x_max":0,"o":"m 210 0 l 210 790 l 49 790 l 49 0 z "},"Ì":{"ha":260,"x_min":0,"x_max":0,"o":"m 210 0 l 210 790 l 49 790 l 49 0 z "},"Í":{"ha":260,"x_min":0,"x_max":0,"o":"m 210 0 l 210 790 l 49 790 l 49 0 z "},"Î":{"ha":260,"x_min":0,"x_max":0,"o":"m 210 0 l 210 790 l 49 790 l 49 0 z "},"Ï":{"ha":260,"x_min":0,"x_max":0,"o":"m 210 0 l 210 790 l 49 790 l 49 0 z "},"J":{"ha":842,"x_min":0,"x_max":0,"o":"m 792 790 l 225 790 l 339 617 b 577 762 414 722 441 762 l 629 762 l 629 388 b 412 16 629 161 538 16 b 221 229 296 16 235 110 l 28 229 b 412 -15 66 78 172 -15 b 792 383 664 -15 792 126 b 792 790 792 407 792 790 z "},"K":{"ha":856,"x_min":0,"x_max":0,"o":"m 521 441 l 729 790 l 476 790 b 522 542 535 713 581 651 b 473 456 511 521 490 484 b 187 653 237 531 187 567 b 187 790 187 732 187 790 l 49 790 l 49 0 l 208 0 l 208 504 b 417 412 280 470 347 441 b 625 0 642 316 625 105 l 806 0 b 521 441 808 160 821 344 z "},"L":{"ha":657,"x_min":0,"x_max":0,"o":"m 523 197 b 266 29 457 100 399 29 l 210 29 l 210 790 l 49 790 l 49 0 l 638 0 z "},"M":{"ha":1088,"x_min":0,"x_max":0,"o":"m 747 790 b 49 790 730 790 49 790 l 49 0 l 208 0 l 208 504 b 329 450 214 501 259 480 b 530 82 529 364 530 203 b 529 0 529 59 529 0 l 690 0 b 690 131 690 0 690 70 b 436 468 690 258 645 395 b 187 653 248 533 187 562 b 326 762 187 699 221 762 b 638 762 369 762 638 762 b 877 397 770 760 877 589 b 877 0 877 217 877 0 l 1038 1 b 1038 390 1038 1 1038 146 b 747 790 1038 651 873 774 z "},"N":{"ha":858,"x_min":0,"x_max":0,"o":"m 648 790 l 648 50 b 493 395 548 89 493 157 b 220 790 493 673 346 774 b 49 790 204 790 49 790 l 49 0 l 208 0 l 208 761 b 338 395 283 736 338 671 b 632 0 338 157 506 16 b 648 0 632 0 647 0 l 648 0 l 808 0 l 808 790 z "},"Ñ":{"ha":858,"x_min":0,"x_max":0,"o":"m 648 790 l 648 50 b 493 395 548 89 493 157 b 220 790 493 673 346 774 b 49 790 204 790 49 790 l 49 0 l 208 0 l 208 761 b 338 395 283 736 338 671 b 632 0 338 157 506 16 b 648 0 632 0 647 0 l 648 0 l 808 0 l 808 790 z "},"O":{"ha":906,"x_min":0,"x_max":0,"o":"m 584 790 b 328 790 543 790 328 790 b 28 395 193 771 28 619 b 445 0 28 133 222 0 b 876 390 671 0 876 135 b 584 790 876 650 710 774 z m 437 29 b 213 390 285 29 213 219 b 473 755 213 572 325 755 b 691 397 607 755 691 590 b 437 29 691 196 567 29 z m 524 366 b 483 465 540 405 522 449 b 385 424 445 481 401 462 b 426 326 369 385 387 341 b 524 366 464 310 508 328 z "},"Ò":{"ha":906,"x_min":0,"x_max":0,"o":"m 584 790 b 328 790 543 790 328 790 b 28 395 193 771 28 619 b 445 0 28 133 222 0 b 876 390 671 0 876 135 b 584 790 876 650 710 774 z m 437 29 b 213 390 285 29 213 219 b 473 755 213 572 325 755 b 691 397 607 755 691 590 b 437 29 691 196 567 29 z m 524 366 b 483 465 540 405 522 449 b 385 424 445 481 401 462 b 426 326 369 385 387 341 b 524 366 464 310 508 328 z "},"Ó":{"ha":906,"x_min":0,"x_max":0,"o":"m 584 790 b 328 790 543 790 328 790 b 28 395 193 771 28 619 b 445 0 28 133 222 0 b 876 390 671 0 876 135 b 584 790 876 650 710 774 z m 437 29 b 213 390 285 29 213 219 b 473 755 213 572 325 755 b 691 397 607 755 691 590 b 437 29 691 196 567 29 z m 524 366 b 483 465 540 405 522 449 b 385 424 445 481 401 462 b 426 326 369 385 387 341 b 524 366 464 310 508 328 z "},"Ô":{"ha":906,"x_min":0,"x_max":0,"o":"m 584 790 b 328 790 543 790 328 790 b 28 395 193 771 28 619 b 445 0 28 133 222 0 b 876 390 671 0 876 135 b 584 790 876 650 710 774 z m 437 29 b 213 390 285 29 213 219 b 473 755 213 572 325 755 b 691 397 607 755 691 590 b 437 29 691 196 567 29 z m 524 366 b 483 465 540 405 522 449 b 385 424 445 481 401 462 b 426 326 369 385 387 341 b 524 366 464 310 508 328 z "},"Õ":{"ha":906,"x_min":0,"x_max":0,"o":"m 584 790 b 328 790 543 790 328 790 b 28 395 193 771 28 619 b 445 0 28 133 222 0 b 876 390 671 0 876 135 b 584 790 876 650 710 774 z m 437 29 b 213 390 285 29 213 219 b 473 755 213 572 325 755 b 691 397 607 755 691 590 b 437 29 691 196 567 29 z m 524 366 b 483 465 540 405 522 449 b 385 424 445 481 401 462 b 426 326 369 385 387 341 b 524 366 464 310 508 328 z "},"Ö":{"ha":906,"x_min":0,"x_max":0,"o":"m 584 790 b 328 790 543 790 328 790 b 28 395 193 771 28 619 b 445 0 28 133 222 0 b 876 390 671 0 876 135 b 584 790 876 650 710 774 z m 437 29 b 213 390 285 29 213 219 b 473 755 213 572 325 755 b 691 397 607 755 691 590 b 437 29 691 196 567 29 z m 524 366 b 483 465 540 405 522 449 b 385 424 445 481 401 462 b 426 326 369 385 387 341 b 524 366 464 310 508 328 z "},"Ø":{"ha":906,"x_min":0,"x_max":0,"o":"m 584 790 b 328 790 543 790 328 790 b 28 395 193 771 28 619 b 445 0 28 133 222 0 b 876 390 671 0 876 135 b 584 790 876 650 710 774 z m 437 29 b 213 390 285 29 213 219 b 473 755 213 572 325 755 b 691 397 607 755 691 590 b 437 29 691 196 567 29 z m 524 366 b 483 465 540 405 522 449 b 385 424 445 481 401 462 b 426 326 369 385 387 341 b 524 366 464 310 508 328 z "},"P":{"ha":810,"x_min":0,"x_max":0,"o":"m 615 790 b 49 790 513 790 49 790 l 49 0 l 209 0 l 209 503 l 384 266 b 549 355 384 266 518 338 b 781 618 671 421 781 481 b 615 790 781 734 700 766 z m 530 390 b 177 682 397 397 177 536 b 177 762 177 709 177 762 l 422 762 b 613 597 548 762 613 695 b 530 390 613 494 582 416 z "},"Q":{"ha":906,"x_min":0,"x_max":0,"o":"m 584 790 l 328 790 b 28 395 193 771 28 619 b 445 0 28 133 222 0 b 876 390 671 0 876 135 b 584 790 876 650 710 774 z m 437 29 b 213 342 309 29 207 179 l 499 215 l 588 364 b 361 364 588 364 445 364 b 194 561 233 364 173 426 b 448 755 209 664 312 755 b 691 397 595 755 691 590 b 437 29 691 196 567 29 z "},"R":{"ha":804,"x_min":0,"x_max":0,"o":"m 513 451 b 692 633 611 502 692 548 b 484 790 692 729 595 790 b 49 790 382 790 49 790 l 49 0 l 210 0 l 210 504 b 390 429 210 504 322 457 b 574 148 522 374 574 260 b 574 0 574 105 574 0 l 755 0 b 755 161 755 0 755 67 b 513 451 755 311 651 405 z m 185 639 b 185 762 185 693 185 762 l 365 762 b 540 618 505 762 540 694 b 471 463 540 546 526 504 b 423 473 456 467 440 470 b 185 639 227 507 185 548 z "},"S":{"ha":808,"x_min":0,"x_max":0,"o":"m 382 457 b 208 618 251 476 208 528 b 390 763 208 700 281 763 b 626 614 495 763 558 706 l 731 790 b 173 790 692 790 173 790 b 46 614 116 778 46 723 b 306 440 46 496 149 459 b 368 431 325 438 353 433 b 605 229 543 406 605 341 b 411 12 605 102 540 12 b 221 229 288 12 221 102 l 28 229 b 414 -15 28 61 203 -15 b 779 223 613 -15 779 61 b 464 444 779 377 630 424 b 382 457 437 447 411 452 z "},"T":{"ha":1050,"x_min":0,"x_max":0,"o":"m 28 790 l 145 612 b 335 762 211 710 245 762 l 445 762 l 445 0 l 605 0 l 605 762 l 713 762 b 903 612 804 762 838 710 l 1021 790 z "},"U":{"ha":865,"x_min":0,"x_max":0,"o":"m 654 790 l 654 151 l 449 29 b 213 390 275 29 213 219 b 452 762 213 563 314 745 l 452 790 b 328 790 388 790 328 790 b 28 395 193 771 28 619 b 456 0 28 133 226 0 l 654 114 l 654 0 l 815 0 l 815 790 z "},"Ù":{"ha":865,"x_min":0,"x_max":0,"o":"m 654 790 l 654 151 l 449 29 b 213 390 275 29 213 219 b 452 762 213 563 314 745 l 452 790 b 328 790 388 790 328 790 b 28 395 193 771 28 619 b 456 0 28 133 226 0 l 654 114 l 654 0 l 815 0 l 815 790 z "},"Ú":{"ha":865,"x_min":0,"x_max":0,"o":"m 654 790 l 654 151 l 449 29 b 213 390 275 29 213 219 b 452 762 213 563 314 745 l 452 790 b 328 790 388 790 328 790 b 28 395 193 771 28 619 b 456 0 28 133 226 0 l 654 114 l 654 0 l 815 0 l 815 790 z "},"Û":{"ha":865,"x_min":0,"x_max":0,"o":"m 654 790 l 654 151 l 449 29 b 213 390 275 29 213 219 b 452 762 213 563 314 745 l 452 790 b 328 790 388 790 328 790 b 28 395 193 771 28 619 b 456 0 28 133 226 0 l 654 114 l 654 0 l 815 0 l 815 790 z "},"Ü":{"ha":865,"x_min":0,"x_max":0,"o":"m 654 790 l 654 151 l 449 29 b 213 390 275 29 213 219 b 452 762 213 563 314 745 l 452 790 b 328 790 388 790 328 790 b 28 395 193 771 28 619 b 456 0 28 133 226 0 l 654 114 l 654 0 l 815 0 l 815 790 z "},"V":{"ha":903,"x_min":0,"x_max":0,"o":"m 581 790 b 469 790 560 790 527 790 l 469 761 b 687 397 603 761 687 590 b 440 29 687 199 567 34 l 352 29 l 194 790 l 21 790 l 195 0 b 441 0 195 0 441 0 b 872 390 667 0 872 135 b 581 790 872 650 707 774 z "},"W":{"ha":1065,"x_min":0,"x_max":0,"o":"m 854 790 l 854 29 b 823 29 847 29 848 29 b 615 195 705 29 615 81 b 615 395 615 241 615 330 l 455 395 b 455 199 455 308 455 260 b 509 66 455 140 475 97 l 449 29 b 213 390 275 29 213 220 b 452 762 213 564 314 746 l 452 791 b 328 791 388 791 328 791 b 28 396 193 771 28 620 b 452 1 28 134 222 1 l 452 1 b 535 46 464 6 500 26 b 679 0 574 21 624 7 b 854 0 691 0 794 0 l 854 0 l 1015 0 l 1015 790 z "},"X":{"ha":907,"x_min":0,"x_max":0,"o":"m 583 504 b 802 745 748 570 802 581 b 802 790 802 768 802 790 l 651 790 l 651 761 b 453 496 651 529 519 519 b 254 761 386 519 254 529 l 254 790 l 103 790 b 103 745 103 790 103 768 b 322 504 103 581 157 570 b 69 252 200 478 69 432 b 69 0 69 77 69 0 l 230 0 b 230 273 230 0 230 116 b 451 478 230 376 321 478 b 675 273 583 478 675 376 b 674 0 675 116 674 0 l 836 0 b 836 252 836 0 836 77 b 583 504 836 432 705 478 z "},"Y":{"ha":890,"x_min":0,"x_max":0,"o":"m 679 790 l 679 402 b 519 331 679 402 615 386 l 519 331 l 407 264 b 212 510 298 264 212 364 b 416 763 212 633 244 735 l 414 790 b 28 511 180 790 28 722 b 409 233 28 315 261 233 b 532 298 409 233 483 271 b 532 298 532 298 532 298 b 706 224 616 344 706 338 b 471 29 706 87 595 29 b 144 197 321 29 257 48 l 28 0 b 503 0 102 0 410 0 b 840 344 779 0 840 124 b 840 790 840 385 840 790 z "},"Ý":{"ha":890,"x_min":0,"x_max":0,"o":"m 679 790 l 679 402 b 519 331 679 402 615 386 l 519 331 l 407 264 b 212 510 298 264 212 364 b 416 763 212 633 244 735 l 414 790 b 28 511 180 790 28 722 b 409 233 28 315 261 233 b 532 298 409 233 483 271 b 532 298 532 298 532 298 b 706 224 616 344 706 338 b 471 29 706 87 595 29 b 144 197 321 29 257 48 l 28 0 b 503 0 102 0 410 0 b 840 344 779 0 840 124 b 840 790 840 385 840 790 z "},"Ÿ":{"ha":890,"x_min":0,"x_max":0,"o":"m 679 790 l 679 402 b 519 331 679 402 615 386 l 519 331 l 407 264 b 212 510 298 264 212 364 b 416 763 212 633 244 735 l 414 790 b 28 511 180 790 28 722 b 409 233 28 315 261 233 b 532 298 409 233 483 271 b 532 298 532 298 532 298 b 706 224 616 344 706 338 b 471 29 706 87 595 29 b 144 197 321 29 257 48 l 28 0 b 503 0 102 0 410 0 b 840 344 779 0 840 124 b 840 790 840 385 840 790 z "},"Z":{"ha":988,"x_min":0,"x_max":0,"o":"m 585 29 l 585 29 l 244 29 l 958 790 l 151 790 l 265 619 b 495 762 330 716 362 761 l 723 762 l 28 0 l 958 0 l 828 197 b 585 29 763 100 718 29 z "},"[":{"ha":542,"x_min":0,"x_max":0,"o":"m 472 763 l 472 791 l 69 791 l 69 -232 l 472 -232 l 472 -203 l 230 -203 l 230 763 z "},"\\":{"ha":408,"x_min":0,"x_max":0,"o":"m 215 644 b 203 790 196 731 203 790 l 49 790 l 223 0 b 357 0 223 0 357 0 b 215 644 357 0 252 472 z "},"]":{"ha":542,"x_min":0,"x_max":0,"o":"m 69 791 l 69 763 l 311 763 l 311 -203 l 69 -203 l 69 -232 l 472 -232 l 472 791 z "},"^":{"ha":1003,"x_min":0,"x_max":0,"o":"m 724 483 b 561 776 724 642 644 736 b 561 776 561 776 561 776 b 560 777 561 776 561 777 b 524 791 548 783 536 787 l 476 791 b 442 777 465 787 454 783 b 441 776 441 777 440 776 b 441 776 441 776 441 776 b 278 483 358 736 278 642 b 69 190 278 292 192 215 l 70 167 b 400 483 187 167 400 262 b 501 764 400 646 430 734 b 601 483 571 734 601 646 b 932 167 601 262 814 167 l 932 190 b 724 483 809 215 724 292 z "},"_":{"ha":794,"x_min":0,"x_max":0,"o":"m 70 1 l 723 -53 l 724 52 l 69 54 z "},"a":{"ha":735,"x_min":0,"x_max":0,"o":"m 685 489 b 471 654 685 615 581 654 b 95 654 409 654 166 654 l 212 477 b 415 628 294 586 331 628 b 546 524 492 628 546 590 b 423 395 546 456 503 395 b 260 395 372 395 298 395 b 22 191 121 395 22 317 b 326 -25 23 51 134 -25 b 525 57 370 -7 525 57 l 525 0 l 685 0 z m 349 17 b 197 186 349 17 197 45 b 372 351 197 284 264 351 b 525 395 478 351 525 395 l 525 94 z "},"à":{"ha":735,"x_min":0,"x_max":0,"o":"m 685 489 b 471 654 685 615 581 654 b 95 654 409 654 166 654 l 212 477 b 415 628 294 586 331 628 b 546 524 492 628 546 590 b 423 395 546 456 503 395 b 260 395 372 395 298 395 b 22 191 121 395 22 317 b 326 -25 23 51 134 -25 b 525 57 370 -7 525 57 l 525 0 l 685 0 z m 349 17 b 197 186 349 17 197 45 b 372 351 197 284 264 351 b 525 395 478 351 525 395 l 525 94 z "},"á":{"ha":735,"x_min":0,"x_max":0,"o":"m 685 489 b 471 654 685 615 581 654 b 95 654 409 654 166 654 l 212 477 b 415 628 294 586 331 628 b 546 524 492 628 546 590 b 423 395 546 456 503 395 b 260 395 372 395 298 395 b 22 191 121 395 22 317 b 326 -25 23 51 134 -25 b 525 57 370 -7 525 57 l 525 0 l 685 0 z m 349 17 b 197 186 349 17 197 45 b 372 351 197 284 264 351 b 525 395 478 351 525 395 l 525 94 z "},"â":{"ha":735,"x_min":0,"x_max":0,"o":"m 685 489 b 471 654 685 615 581 654 b 95 654 409 654 166 654 l 212 477 b 415 628 294 586 331 628 b 546 524 492 628 546 590 b 423 395 546 456 503 395 b 260 395 372 395 298 395 b 22 191 121 395 22 317 b 326 -25 23 51 134 -25 b 525 57 370 -7 525 57 l 525 0 l 685 0 z m 349 17 b 197 186 349 17 197 45 b 372 351 197 284 264 351 b 525 395 478 351 525 395 l 525 94 z "},"ã":{"ha":735,"x_min":0,"x_max":0,"o":"m 685 489 b 471 654 685 615 581 654 b 95 654 409 654 166 654 l 212 477 b 415 628 294 586 331 628 b 546 524 492 628 546 590 b 423 395 546 456 503 395 b 260 395 372 395 298 395 b 22 191 121 395 22 317 b 326 -25 23 51 134 -25 b 525 57 370 -7 525 57 l 525 0 l 685 0 z m 349 17 b 197 186 349 17 197 45 b 372 351 197 284 264 351 b 525 395 478 351 525 395 l 525 94 z "},"ä":{"ha":735,"x_min":0,"x_max":0,"o":"m 685 489 b 471 654 685 615 581 654 b 95 654 409 654 166 654 l 212 477 b 415 628 294 586 331 628 b 546 524 492 628 546 590 b 423 395 546 456 503 395 b 260 395 372 395 298 395 b 22 191 121 395 22 317 b 326 -25 23 51 134 -25 b 525 57 370 -7 525 57 l 525 0 l 685 0 z m 349 17 b 197 186 349 17 197 45 b 372 351 197 284 264 351 b 525 395 478 351 525 395 l 525 94 z "},"å":{"ha":735,"x_min":0,"x_max":0,"o":"m 685 489 b 471 654 685 615 581 654 b 95 654 409 654 166 654 l 212 477 b 415 628 294 586 331 628 b 546 524 492 628 546 590 b 423 395 546 456 503 395 b 260 395 372 395 298 395 b 22 191 121 395 22 317 b 326 -25 23 51 134 -25 b 525 57 370 -7 525 57 l 525 0 l 685 0 z m 349 17 b 197 186 349 17 197 45 b 372 351 197 284 264 351 b 525 395 478 351 525 395 l 525 94 z "},"b":{"ha":754,"x_min":0,"x_max":0,"o":"m 532 653 b 209 653 532 653 209 653 b 209 790 209 706 209 790 l 49 790 l 49 0 l 209 0 l 209 44 b 364 -14 224 14 279 -14 b 725 319 547 -14 725 79 b 532 653 725 473 663 602 z m 364 10 b 209 302 261 10 209 116 b 209 624 209 397 209 624 l 380 624 b 551 340 491 624 551 493 b 364 10 551 121 469 10 z "},"c":{"ha":758,"x_min":0,"x_max":0,"o":"m 388 9 b 191 314 259 9 191 170 b 396 625 191 469 264 625 b 591 476 501 625 531 585 l 709 653 l 221 653 b 28 311 60 569 28 430 b 377 -15 28 89 188 -15 b 709 187 530 -15 668 42 b 545 188 709 187 583 188 b 388 9 531 86 470 9 z "},"ç":{"ha":758,"x_min":0,"x_max":0,"o":"m 388 9 b 191 314 259 9 191 170 b 396 625 191 469 264 625 b 591 476 501 625 531 585 l 709 653 l 221 653 b 28 311 60 569 28 430 b 377 -15 28 89 188 -15 b 709 187 530 -15 668 42 b 545 188 709 187 583 188 b 388 9 531 86 470 9 z "},"d":{"ha":778,"x_min":0,"x_max":0,"o":"m 726 790 l 566 790 b 566 654 566 790 566 665 l 278 654 b 28 314 109 609 28 494 b 367 -33 28 -11 307 -33 l 566 49 l 566 0 l 726 0 z m 566 86 l 390 8 b 199 314 354 15 199 94 b 383 625 199 487 260 589 b 566 625 459 625 566 625 b 566 86 566 377 566 86 z "},"e":{"ha":753,"x_min":0,"x_max":0,"o":"m 701 471 b 508 655 655 591 589 638 b 259 655 472 655 259 655 b 28 320 166 630 28 510 b 381 -14 28 98 192 -14 b 723 188 531 -14 669 55 l 557 188 b 374 10 524 84 454 10 b 198 161 286 10 218 66 b 401 366 175 266 259 366 b 712 366 475 366 712 366 b 701 471 712 366 724 402 z m 548 397 b 391 397 548 397 528 397 b 196 339 288 397 224 368 b 397 630 195 498 275 630 b 548 397 478 630 548 523 z "},"è":{"ha":753,"x_min":0,"x_max":0,"o":"m 701 471 b 508 655 655 591 589 638 b 259 655 472 655 259 655 b 28 320 166 630 28 510 b 381 -14 28 98 192 -14 b 723 188 531 -14 669 55 l 557 188 b 374 10 524 84 454 10 b 198 161 286 10 218 66 b 401 366 175 266 259 366 b 712 366 475 366 712 366 b 701 471 712 366 724 402 z m 548 397 b 391 397 548 397 528 397 b 196 339 288 397 224 368 b 397 630 195 498 275 630 b 548 397 478 630 548 523 z "},"é":{"ha":753,"x_min":0,"x_max":0,"o":"m 701 471 b 508 655 655 591 589 638 b 259 655 472 655 259 655 b 28 320 166 630 28 510 b 381 -14 28 98 192 -14 b 723 188 531 -14 669 55 l 557 188 b 374 10 524 84 454 10 b 198 161 286 10 218 66 b 401 366 175 266 259 366 b 712 366 475 366 712 366 b 701 471 712 366 724 402 z m 548 397 b 391 397 548 397 528 397 b 196 339 288 397 224 368 b 397 630 195 498 275 630 b 548 397 478 630 548 523 z "},"ê":{"ha":753,"x_min":0,"x_max":0,"o":"m 701 471 b 508 655 655 591 589 638 b 259 655 472 655 259 655 b 28 320 166 630 28 510 b 381 -14 28 98 192 -14 b 723 188 531 -14 669 55 l 557 188 b 374 10 524 84 454 10 b 198 161 286 10 218 66 b 401 366 175 266 259 366 b 712 366 475 366 712 366 b 701 471 712 366 724 402 z m 548 397 b 391 397 548 397 528 397 b 196 339 288 397 224 368 b 397 630 195 498 275 630 b 548 397 478 630 548 523 z "},"ë":{"ha":753,"x_min":0,"x_max":0,"o":"m 701 471 b 508 655 655 591 589 638 b 259 655 472 655 259 655 b 28 320 166 630 28 510 b 381 -14 28 98 192 -14 b 723 188 531 -14 669 55 l 557 188 b 374 10 524 84 454 10 b 198 161 286 10 218 66 b 401 366 175 266 259 366 b 712 366 475 366 712 366 b 701 471 712 366 724 402 z m 548 397 b 391 397 548 397 528 397 b 196 339 288 397 224 368 b 397 630 195 498 275 630 b 548 397 478 630 548 523 z "},"f":{"ha":667,"x_min":0,"x_max":0,"o":"m 344 505 b 196 635 245 505 196 555 b 340 762 196 704 252 762 b 528 614 428 762 457 720 l 646 790 b 200 790 551 790 263 790 b 49 542 141 771 49 708 l 49 0 b 200 0 49 0 167 0 l 200 488 l 458 374 l 545 505 b 344 505 545 505 436 505 z "},"g":{"ha":836,"x_min":0,"x_max":0,"o":"m 807 -43 b 564 35 807 -43 588 27 b 774 356 656 81 774 156 b 602 654 774 557 634 639 l 238 654 b 63 365 155 611 63 525 b 147 157 63 277 98 211 l 628 -57 b 393 -206 629 -107 598 -206 b 130 -35 210 -206 169 -91 l 0 -232 b 506 -232 26 -232 457 -232 b 807 -43 643 -232 809 -204 z m 424 626 b 602 346 528 626 602 510 b 473 60 602 173 537 103 b 369 96 445 69 373 95 b 232 368 267 143 232 217 b 424 626 232 502 310 626 z "},"h":{"ha":792,"x_min":0,"x_max":0,"o":"m 529 653 b 276 653 529 653 326 653 l 201 599 l 201 789 l 49 789 l 49 -1 l 201 -1 l 201 511 b 394 616 201 511 234 616 b 589 326 520 616 589 506 b 458 -1 589 134 506 44 l 491 -32 b 761 325 569 4 761 95 b 529 653 761 537 631 630 z "},"i":{"ha":260,"x_min":0,"x_max":0,"o":"m 209 0 l 209 653 l 49 653 l 49 0 z m 209 694 l 209 790 l 49 790 l 49 694 z "},"ì":{"ha":260,"x_min":0,"x_max":0,"o":"m 209 0 l 209 653 l 49 653 l 49 0 z m 209 694 l 209 790 l 49 790 l 49 694 z "},"í":{"ha":260,"x_min":0,"x_max":0,"o":"m 209 0 l 209 653 l 49 653 l 49 0 z m 209 694 l 209 790 l 49 790 l 49 694 z "},"î":{"ha":260,"x_min":0,"x_max":0,"o":"m 209 0 l 209 653 l 49 653 l 49 0 z m 209 694 l 209 790 l 49 790 l 49 694 z "},"ï":{"ha":260,"x_min":0,"x_max":0,"o":"m 209 0 l 209 653 l 49 653 l 49 0 z m 209 694 l 209 790 l 49 790 l 49 694 z "},"j":{"ha":713,"x_min":0,"x_max":0,"o":"m 504 56 b 350 -204 504 -131 430 -204 b 136 -51 244 -204 220 -159 l 17 -233 b 361 -233 91 -233 267 -233 b 664 125 617 -233 664 -96 b 664 653 664 440 664 653 l 504 653 b 504 56 504 653 504 213 z m 664 694 l 664 790 l 504 790 l 504 694 z "},"k":{"ha":753,"x_min":0,"x_max":0,"o":"m 725 66 b 428 328 725 153 686 276 b 188 487 236 366 188 396 b 340 624 188 565 248 624 b 530 476 430 624 464 574 l 647 653 l 284 653 l 209 599 l 209 790 l 49 790 l 49 0 l 209 0 b 209 363 209 0 209 361 b 394 281 281 330 328 310 b 552 0 569 204 552 60 l 725 0 b 725 66 725 0 725 17 z "},"l":{"ha":260,"x_min":0,"x_max":0,"o":"m 209 0 l 209 790 l 49 790 l 49 0 z "},"m":{"ha":1026,"x_min":0,"x_max":0,"o":"m 778 653 l 49 653 l 49 0 l 209 0 l 209 363 b 452 87 367 292 452 238 b 452 0 452 2 452 0 l 616 0 b 616 104 616 0 616 37 b 419 327 616 247 534 302 b 181 507 190 376 181 440 b 311 624 181 588 251 624 b 641 624 326 624 641 624 b 816 338 767 624 816 489 b 816 0 816 223 816 0 l 976 0 b 976 334 976 0 976 160 b 778 653 976 541 886 626 z "},"n":{"ha":765,"x_min":0,"x_max":0,"o":"m 292 653 l 209 594 l 209 653 l 49 653 l 49 0 l 209 0 l 209 519 b 383 624 209 519 278 624 b 557 338 508 624 557 489 b 557 0 557 223 557 0 l 717 0 b 717 334 717 0 717 161 b 519 653 717 541 627 626 b 292 653 519 653 313 653 z "},"ñ":{"ha":765,"x_min":0,"x_max":0,"o":"m 292 653 l 209 594 l 209 653 l 49 653 l 49 0 l 209 0 l 209 519 b 383 624 209 519 278 624 b 557 338 508 624 557 489 b 557 0 557 223 557 0 l 717 0 b 717 334 717 0 717 161 b 519 653 717 541 627 626 b 292 653 519 653 313 653 z "},"o":{"ha":776,"x_min":0,"x_max":0,"o":"m 510 655 l 282 655 b 28 321 168 638 28 510 b 375 -14 28 99 186 -14 b 746 316 566 -14 746 100 b 510 655 746 537 616 635 z m 374 10 b 196 316 245 10 196 171 b 405 630 196 471 280 630 b 577 322 518 630 577 486 b 374 10 577 152 484 10 z "},"ò":{"ha":776,"x_min":0,"x_max":0,"o":"m 510 655 l 282 655 b 28 321 168 638 28 510 b 375 -14 28 99 186 -14 b 746 316 566 -14 746 100 b 510 655 746 537 616 635 z m 374 10 b 196 316 245 10 196 171 b 405 630 196 471 280 630 b 577 322 518 630 577 486 b 374 10 577 152 484 10 z "},"ó":{"ha":776,"x_min":0,"x_max":0,"o":"m 510 655 l 282 655 b 28 321 168 638 28 510 b 375 -14 28 99 186 -14 b 746 316 566 -14 746 100 b 510 655 746 537 616 635 z m 374 10 b 196 316 245 10 196 171 b 405 630 196 471 280 630 b 577 322 518 630 577 486 b 374 10 577 152 484 10 z "},"ô":{"ha":776,"x_min":0,"x_max":0,"o":"m 510 655 l 282 655 b 28 321 168 638 28 510 b 375 -14 28 99 186 -14 b 746 316 566 -14 746 100 b 510 655 746 537 616 635 z m 374 10 b 196 316 245 10 196 171 b 405 630 196 471 280 630 b 577 322 518 630 577 486 b 374 10 577 152 484 10 z "},"õ":{"ha":776,"x_min":0,"x_max":0,"o":"m 510 655 l 282 655 b 28 321 168 638 28 510 b 375 -14 28 99 186 -14 b 746 316 566 -14 746 100 b 510 655 746 537 616 635 z m 374 10 b 196 316 245 10 196 171 b 405 630 196 471 280 630 b 577 322 518 630 577 486 b 374 10 577 152 484 10 z "},"ö":{"ha":776,"x_min":0,"x_max":0,"o":"m 510 655 l 282 655 b 28 321 168 638 28 510 b 375 -14 28 99 186 -14 b 746 316 566 -14 746 100 b 510 655 746 537 616 635 z m 374 10 b 196 316 245 10 196 171 b 405 630 196 471 280 630 b 577 322 518 630 577 486 b 374 10 577 152 484 10 z "},"ø":{"ha":776,"x_min":0,"x_max":0,"o":"m 510 655 l 282 655 b 28 321 168 638 28 510 b 375 -14 28 99 186 -14 b 746 316 566 -14 746 100 b 510 655 746 537 616 635 z m 374 10 b 196 316 245 10 196 171 b 405 630 196 471 280 630 b 577 322 518 630 577 486 b 374 10 577 152 484 10 z "},"p":{"ha":763,"x_min":0,"x_max":0,"o":"m 49 654 l 49 -233 l 209 -233 l 209 31 b 360 -16 259 2 273 -16 b 732 328 551 -16 732 89 b 490 653 732 544 603 636 b 49 654 490 653 49 653 z m 360 8 b 183 295 233 8 183 109 l 183 624 l 360 624 b 561 333 493 624 561 484 b 360 8 561 128 465 8 z "},"q":{"ha":761,"x_min":0,"x_max":0,"o":"m 289 654 b 28 334 156 626 28 529 b 378 -16 28 88 187 -16 b 432 -16 387 -16 432 -16 l 551 34 l 551 -233 l 711 -233 l 711 653 z m 411 8 b 199 339 284 26 199 134 b 390 624 199 491 274 588 l 551 624 l 551 69 b 411 8 551 69 435 17 z "},"r":{"ha":667,"x_min":0,"x_max":0,"o":"m 49 653 l 49 0 l 209 0 l 209 478 b 369 624 209 478 273 624 b 529 478 465 624 464 576 l 646 653 l 274 653 l 207 594 l 207 653 z "},"s":{"ha":744,"x_min":0,"x_max":0,"o":"m 361 380 b 206 506 255 380 206 438 b 367 629 206 577 255 629 b 584 479 468 629 521 574 l 699 653 l 151 653 b 45 506 100 644 45 581 b 284 353 45 376 190 353 b 372 353 289 353 349 353 b 538 179 501 353 538 274 b 373 10 538 74 483 12 b 218 188 253 10 217 103 l 28 188 b 376 -15 28 37 180 -15 b 714 180 530 -15 714 28 b 446 380 714 336 585 380 b 361 380 427 380 380 380 z "},"t":{"ha":761,"x_min":0,"x_max":0,"o":"m 569 189 b 406 12 544 96 488 12 b 208 320 286 12 208 130 l 208 540 l 326 627 b 562 476 460 627 524 557 l 681 655 l 283 655 l 208 602 l 208 792 l 49 792 l 49 302 l 49 302 b 404 -14 56 91 219 -14 b 733 189 655 -14 709 100 l 569 189 z "},"u":{"ha":808,"x_min":0,"x_max":0,"o":"m 759 655 l 599 655 l 599 89 l 423 10 l 374 10 b 196 316 245 10 196 171 b 335 645 196 471 238 576 l 316 670 b 28 321 173 640 28 511 b 362 -14 28 104 179 -9 l 436 -14 l 599 56 l 599 2 l 759 2 z "},"ù":{"ha":808,"x_min":0,"x_max":0,"o":"m 759 655 l 599 655 l 599 89 l 423 10 l 374 10 b 196 316 245 10 196 171 b 335 645 196 471 238 576 l 316 670 b 28 321 173 640 28 511 b 362 -14 28 104 179 -9 l 436 -14 l 599 56 l 599 2 l 759 2 z "},"ú":{"ha":808,"x_min":0,"x_max":0,"o":"m 759 655 l 599 655 l 599 89 l 423 10 l 374 10 b 196 316 245 10 196 171 b 335 645 196 471 238 576 l 316 670 b 28 321 173 640 28 511 b 362 -14 28 104 179 -9 l 436 -14 l 599 56 l 599 2 l 759 2 z "},"û":{"ha":808,"x_min":0,"x_max":0,"o":"m 759 655 l 599 655 l 599 89 l 423 10 l 374 10 b 196 316 245 10 196 171 b 335 645 196 471 238 576 l 316 670 b 28 321 173 640 28 511 b 362 -14 28 104 179 -9 l 436 -14 l 599 56 l 599 2 l 759 2 z "},"ü":{"ha":808,"x_min":0,"x_max":0,"o":"m 759 655 l 599 655 l 599 89 l 423 10 l 374 10 b 196 316 245 10 196 171 b 335 645 196 471 238 576 l 316 670 b 28 321 173 640 28 511 b 362 -14 28 104 179 -9 l 436 -14 l 599 56 l 599 2 l 759 2 z "},"v":{"ha":764,"x_min":0,"x_max":0,"o":"m 714 653 l 553 653 b 554 367 553 653 554 445 b 266 29 554 173 431 65 l 209 29 l 209 653 l 49 653 l 49 0 l 280 0 b 714 371 471 38 714 130 b 714 653 714 461 714 653 z "},"w":{"ha":1014,"x_min":0,"x_max":0,"o":"m 803 237 b 661 29 803 102 754 29 b 534 201 577 29 534 103 l 534 233 l 376 233 b 466 56 376 168 404 101 l 384 10 l 374 10 b 196 316 245 10 196 171 b 334 644 196 470 250 584 l 316 670 b 28 321 173 640 28 510 b 362 -14 28 104 179 -9 l 398 -14 l 495 38 b 667 1 539 15 596 1 b 963 231 793 1 963 51 b 963 655 963 366 963 655 l 803 655 b 803 237 803 655 803 366 z "},"x":{"ha":817,"x_min":0,"x_max":0,"o":"m 503 366 b 738 653 618 409 738 457 l 561 653 b 561 558 561 653 561 593 b 407 377 561 471 523 402 b 253 558 292 402 253 471 b 253 653 253 590 253 653 l 77 653 b 311 366 77 457 197 409 b 49 0 119 327 49 172 l 205 0 b 407 347 205 125 221 347 b 609 0 582 347 609 125 l 766 0 b 503 366 766 172 691 327 z "},"y":{"ha":817,"x_min":0,"x_max":0,"o":"m 605 653 l 605 108 b 405 58 557 120 490 121 l 327 95 b 189 367 224 141 189 216 b 382 624 189 501 267 624 l 382 653 l 196 653 b 21 364 113 610 21 524 b 105 155 21 275 56 210 l 409 21 b 631 -48 549 92 631 58 b 394 -208 631 -161 526 -208 b 130 -37 211 -208 164 -102 l 0 -233 b 393 -233 0 -233 344 -233 b 766 -1 669 -233 766 -173 b 766 653 766 170 766 653 z "},"ý":{"ha":817,"x_min":0,"x_max":0,"o":"m 605 653 l 605 108 b 405 58 557 120 490 121 l 327 95 b 189 367 224 141 189 216 b 382 624 189 501 267 624 l 382 653 l 196 653 b 21 364 113 610 21 524 b 105 155 21 275 56 210 l 409 21 b 631 -48 549 92 631 58 b 394 -208 631 -161 526 -208 b 130 -37 211 -208 164 -102 l 0 -233 b 393 -233 0 -233 344 -233 b 766 -1 669 -233 766 -173 b 766 653 766 170 766 653 z "},"ÿ":{"ha":817,"x_min":0,"x_max":0,"o":"m 605 653 l 605 108 b 405 58 557 120 490 121 l 327 95 b 189 367 224 141 189 216 b 382 624 189 501 267 624 l 382 653 l 196 653 b 21 364 113 610 21 524 b 105 155 21 275 56 210 l 409 21 b 631 -48 549 92 631 58 b 394 -208 631 -161 526 -208 b 130 -37 211 -208 164 -102 l 0 -233 b 393 -233 0 -233 344 -233 b 766 -1 669 -233 766 -173 b 766 653 766 170 766 653 z "},"z":{"ha":878,"x_min":0,"x_max":0,"o":"m 680 188 b 494 29 647 83 573 29 l 217 29 b 824 654 217 29 751 574 l 115 654 l 232 478 b 422 624 283 558 304 624 b 615 624 472 624 615 624 l 28 0 l 501 0 b 846 188 649 0 793 55 z "},"{":{"ha":629,"x_min":0,"x_max":0,"o":"m 400 525 b 579 762 400 741 475 762 l 579 791 l 515 791 b 247 525 389 775 247 735 b 123 297 247 348 202 307 l 49 311 l 49 280 l 49 280 l 49 248 l 123 262 b 247 34 202 252 247 211 b 515 -232 247 -176 389 -216 l 579 -232 l 579 -203 b 400 34 475 -203 400 -182 b 214 279 400 193 314 255 l 214 279 l 213 279 b 211 280 212 279 212 279 b 212 280 211 280 212 280 l 214 280 l 214 280 b 400 525 314 304 400 366 z "},"}":{"ha":629,"x_min":0,"x_max":0,"o":"m 579 280 l 579 280 l 579 311 l 505 297 b 381 525 426 307 381 348 b 113 791 381 735 239 775 l 49 791 l 49 762 b 228 525 153 762 228 741 b 414 280 228 366 314 304 l 414 280 l 416 280 b 417 280 416 280 417 280 b 415 279 416 279 416 279 l 414 279 l 414 279 b 228 34 314 255 228 193 b 49 -203 228 -182 153 -203 l 49 -232 l 113 -232 b 381 34 239 -216 381 -176 b 505 262 381 211 426 252 l 579 248 z "},"~":{"ha":910,"x_min":0,"x_max":0,"o":"m 93 361 b 422 337 155 425 238 423 b 841 426 605 252 771 321 l 811 449 b 491 441 734 371 676 355 b 69 379 306 528 137 487 z "}," ":{"ha":407,"x_min":0,"x_max":0,"o":""},"§":{"ha":763,"x_min":0,"x_max":0,"o":"m 653 273 b 692 350 676 290 692 315 b 406 539 692 473 602 507 l 350 549 b 230 666 263 565 230 598 b 370 768 230 732 289 768 b 560 616 476 768 497 713 l 675 792 l 164 792 b 69 676 106 774 69 737 b 116 586 69 637 86 608 b 69 486 90 563 69 530 b 316 323 69 380 169 347 l 366 315 b 517 182 495 293 517 262 b 382 13 517 78 465 13 b 259 190 288 13 258 104 l 69 190 b 382 -14 87 39 185 -14 b 692 183 544 -14 692 43 b 653 273 692 225 679 253 z m 414 337 l 337 351 b 220 474 255 366 220 413 b 236 538 220 498 227 521 b 316 523 261 533 288 528 l 366 515 b 501 323 495 494 543 406 b 414 337 475 328 446 332 z "},"­":{"ha":0,"x_min":0,"x_max":0,"o":""},"±":{"ha":793,"x_min":0,"x_max":0,"o":"m 440 425 l 427 437 l 444 652 l 348 652 l 365 437 l 352 425 l 69 447 l 69 340 l 352 362 l 365 350 l 348 135 l 444 135 l 427 350 l 440 362 l 723 340 l 723 447 z m 70 -1 l 723 -56 l 723 50 l 69 52 z "},"–":{"ha":793,"x_min":0,"x_max":0,"o":"m 70 262 l 723 208 l 724 313 l 69 316 z "},"†":{"ha":800,"x_min":0,"x_max":0,"o":"m 437 395 l 437 454 b 522 600 437 520 490 571 l 399 790 l 273 599 b 358 454 313 569 358 520 l 358 395 b 28 395 256 395 70 395 l 77 319 l 156 199 b 358 359 233 303 271 354 l 358 85 b 290 -67 358 2 329 -37 l 399 -233 l 507 -67 b 437 85 475 -37 437 2 l 437 360 b 642 199 527 355 565 304 l 721 319 l 771 395 b 437 395 728 395 539 395 z "},"€":{"ha":1064,"x_min":0,"x_max":0,"o":"m 622 13 b 416 274 499 13 437 136 l 673 235 l 732 327 l 411 327 b 409 381 409 345 409 363 b 414 460 409 408 411 434 l 778 413 l 836 504 l 423 504 b 675 761 456 644 545 761 b 895 609 794 761 828 709 l 1015 790 l 511 790 b 221 504 399 774 265 667 l 49 504 l 49 467 l 212 467 b 205 387 208 441 205 415 b 209 327 205 366 206 346 l 49 327 l 49 289 l 215 289 b 630 -15 258 87 433 -15 b 1015 229 836 -15 958 87 l 823 229 b 622 13 801 116 750 13 z "},"":{"ha":1750,"x_min":0,"x_max":0,"o":"m 28 790 l 145 612 b 335 762 211 710 245 762 l 445 762 l 445 0 l 605 0 l 605 762 l 685 762 b 866 624 771 762 806 714 l 874 612 l 875 612 l 882 623 b 1064 762 943 714 978 762 l 1146 762 l 1146 0 l 1305 0 l 1305 762 l 1414 762 b 1604 612 1504 762 1538 710 l 1721 790 z "}}}
